<?xml version="1.0" encoding="UTF-8" standalone="no"?>
<svg
   xmlns:dc="http://purl.org/dc/elements/1.1/"
   xmlns:cc="http://creativecommons.org/ns#"
   xmlns:rdf="http://www.w3.org/1999/02/22-rdf-syntax-ns#"
   xmlns:svg="http://www.w3.org/2000/svg"
   xmlns="http://www.w3.org/2000/svg"
   xmlns:sodipodi="http://sodipodi.sourceforge.net/DTD/sodipodi-0.dtd"
   xmlns:inkscape="http://www.inkscape.org/namespaces/inkscape"
   width="71.672813mm"
   height="20.78673mm"
   viewBox="0 0 71.672813 20.78673"
   version="1.1"
   id="svg8"
   inkscape:version="1.0.2-2 (e86c870879, 2021-01-15)"
   sodipodi:docname="olip.svg">
  <defs
     id="defs2" />
  <sodipodi:namedview
     id="base"
     pagecolor="#ffffff"
     bordercolor="#666666"
     borderopacity="1.0"
     inkscape:pageopacity="0.0"
     inkscape:pageshadow="2"
     inkscape:zoom="1.4"
     inkscape:cx="255.05509"
     inkscape:cy="202.85723"
     inkscape:document-units="mm"
     inkscape:current-layer="g847"
     inkscape:document-rotation="0"
     showgrid="false"
     fit-margin-top="0"
     fit-margin-left="0"
     fit-margin-right="0"
     fit-margin-bottom="0"
     inkscape:window-width="1431"
     inkscape:window-height="1208"
     inkscape:window-x="986"
     inkscape:window-y="2160"
     inkscape:window-maximized="0" />
  <metadata
     id="metadata5">
    <rdf:RDF>
      <cc:Work
         rdf:about="">
        <dc:format>image/svg+xml</dc:format>
        <dc:type
           rdf:resource="http://purl.org/dc/dcmitype/StillImage" />
        <dc:title></dc:title>
      </cc:Work>
    </rdf:RDF>
  </metadata>
  <g
     inkscape:label="Layer 1"
     inkscape:groupmode="layer"
     id="layer1"
     transform="translate(-50.404266,-199.04109)">
    <g
       id="g847"
       transform="translate(-1.3229167,-49.703869)">
      <path
         style="fill:#4aaadc;stroke-width:0.264583"
         d="m 56.840481,267.64866 c -1.729728,-0.61096 -3.791756,-2.7574 -4.500488,-4.68473 -0.599757,-1.63099 -0.809368,-5.22613 -0.402272,-6.89958 0.601986,-2.47459 2.311664,-4.56717 4.603118,-5.63405 2.064619,-0.96126 5.3545,-0.96265 7.450331,-0.003 3.54758,1.62413 5.304487,5.3871 4.732029,10.13512 -0.407215,3.37746 -2.459317,6.18304 -5.207377,7.1194 -1.579849,0.53831 -5.107208,0.52086 -6.675341,-0.033 z m 6.547242,-2.90399 c 0.533784,-0.42342 1.260054,-1.34802 1.613934,-2.05467 0.542734,-1.08378 0.642201,-1.6613 0.635639,-3.69066 -0.01445,-4.46857 -1.844147,-6.77145 -5.380099,-6.77145 -3.382751,0 -5.330227,2.29752 -5.382548,6.35 -0.03579,2.77212 0.474415,4.36621 1.831947,5.72374 1.268489,1.26849 1.711902,1.41089 4.035294,1.29584 1.378772,-0.0683 1.847108,-0.21922 2.645833,-0.8528 z m 10.098641,3.17461 c -1.012622,-0.3619 -1.058334,-0.75436 -1.058334,-9.08637 0,-7.5213 0.03515,-8.14231 0.483854,-8.54838 0.639014,-0.5783 1.708045,-0.55649 2.253264,0.046 0.385246,0.42569 0.437882,1.3639 0.437882,7.80521 v 7.32135 h 4.048125 c 4.377169,0 4.683126,0.0903 4.683126,1.38238 0,0.55882 -0.171236,0.81249 -0.678683,1.00542 -0.69686,0.26494 -9.456759,0.32905 -10.169234,0.0744 z m 13.909524,-0.23216 c -0.360595,-0.3606 -0.415774,-1.53568 -0.415774,-8.85423 0,-8.07207 0.02223,-8.45035 0.511773,-8.71235 0.686665,-0.3675 1.691087,-0.34645 2.081147,0.0436 0.23382,0.23383 0.3175,2.56733 0.3175,8.85424 0,8.16922 -0.022,8.54852 -0.51178,8.81062 -0.734196,0.39293 -1.503068,0.33792 -1.982866,-0.14188 z m 7.165855,-0.0681 c -0.38742,-0.42809 -0.43788,-1.41907 -0.43788,-8.59896 0,-7.76233 0.023,-8.13811 0.52917,-8.64427 0.48034,-0.48034 0.87703,-0.52857 4.29948,-0.5227 4.229867,0.007 5.703617,0.25425 7.136367,1.19602 1.4547,0.95621 1.91414,2.00245 1.92035,4.37309 0.005,1.73599 -0.0896,2.14707 -0.70489,3.0768 -1.15917,1.75162 -2.55877,2.26146 -6.60966,2.40774 l -3.395817,0.12262 v 3.09887 c 0,2.66612 -0.0676,3.16003 -0.48385,3.53676 -0.63902,0.5783 -1.70805,0.55649 -2.25327,-0.046 z m 9.418797,-9.63555 c 0.97816,-0.64092 1.43823,-2.25134 1.03125,-3.60973 -0.49133,-1.63989 -1.26507,-1.9832 -4.73637,-2.10152 l -2.976557,-0.10146 v 3.23211 3.23211 l 2.988447,-0.0949 c 2.27862,-0.0723 3.15585,-0.20455 3.69323,-0.55665 z"
         id="path851" />
      <path
         style="fill:#ea3250;stroke-width:0.264583"
         d="m 116.15042,269.5003 c -0.1819,-0.0652 -0.33073,-0.33044 -0.33073,-0.58936 0,-0.45154 5.10007,-16.67707 5.97156,-18.99815 0.43591,-1.16098 1.2894,-1.55182 1.60317,-0.73415 0.21812,0.5684 -6.0343,19.98218 -6.51639,20.23342 -0.21828,0.11375 -0.54571,0.15346 -0.72761,0.0882 z"
         id="path849" />
    </g>
  </g>
</svg>
